<svg fill="none"
                    xmlns="http://www.w3.org/2000/svg" viewBox="0 0 60 51">
                    <g clip-path="url(#clip0)">
                        <path
                            d="M53.514 44.06a21.813 21.813 0 000-31.047c-8.653-8.574-22.681-8.574-31.333 0a21.813 21.813 0 000 31.048c8.652 8.573 22.68 8.573 31.332 0z"
                            fill="#F0F0F2"></path>
                        <g filter="url(#filter0_ddd)">
                            <path
                                d="M34.21 26.03l-32.125.105C.962 26.136.08 25.262.08 24.15L0 2.883C0 1.771.882.897 2.004.897L34.103.765c1.122 0 2.004.874 2.004 1.986l.08 21.292c.027 1.086-.882 1.987-1.978 1.987z"
                                fill="#fff"></path>
                        </g>
                        <path
                            d="M36.16 4.87L.026 5.002V2.62C.026 1.506.908.632 2.031.632L34.129.5c1.122 0 2.004.874 2.004 1.986l.027 2.384z"
                            fill="#F0F0F2"></path>
                        <path
                            d="M37.39 23.09l.187-2.04-.187 2.04zm4.169 3.92a24.053 24.053 0 00-.882-1.616 31.44 31.44 0 00-1.016-1.563c-.187-.264-.347-.503-.534-.741-.535-.741-1.07-1.404-1.55-2.013l-.16 2.04 2.538 4.82h.027c.107-.027.214-.08.32-.107 0 0 .028 0 .028-.026.107-.026.187-.08.294-.132.026-.027.053-.027.106-.053.08-.053.16-.08.241-.133a.203.203 0 01.107-.053c.08-.053.16-.106.24-.185.027-.027.054-.027.054-.053a.62.62 0 01.187-.186z"
                            fill="#FF7300"></path>
                        <path
                            d="M37.123 26.665a1.347 1.347 0 001.283 1.43c.454 0 .988-.026 1.55-.185l-2.54-4.82-.293 3.575z"
                            fill="#FFAA6D"></path>
                        <path
                            d="M50.566 22.322L36.08 12.047l-.053.556.053 6.7c.348.397.882 1.006 1.47 1.748a39.289 39.289 0 011.55 2.013c.187.238.348.503.535.741.347.503.695 1.033 1.015 1.563.321.53.615 1.085.882 1.615l-.16.159c.053-.053.107-.106.187-.159 1.123 2.251 1.63 4.423.561 5.826-.588.345-1.39.768-1.95.848-1.872.291-4.01-.291-4.865-1.96-1.31-2.569-2.753-5.88-3.474-8.29-.08-.238-.134-.476-.187-.688-.882-3.575-3.608-3.946-4.918-3.946-.748 0-1.31.715-1.122 1.457.08.318.294 1.51.588 3.204.695 4.052 1.844 11.017 2.619 15.89a10.604 10.604 0 004.009 6.727l5.505 4.37c6.815-.133 12.882-3.337 16.864-8.263l-1.523-14.672a7.409 7.409 0 00-3.1-5.164z"
                            fill="#FFAA6D"></path>
                        <path
                            d="M13.23 12.18a.307.307 0 01-.322-.319V9.293c0-.186.134-.318.321-.318s.32.132.32.318v2.569a.324.324 0 01-.32.317zm0 9.003a.307.307 0 01-.322-.317v-5.27c0-.186.134-.318.321-.318s.32.132.32.317v5.27a.307.307 0 01-.32.318zm.64-7.786c.188 0 .321.133.321.318a.307.307 0 01-.32.318h-1.31a.307.307 0 01-.32-.318c0-.185.133-.318.32-.318h1.31zm0-.635h-1.309c-.534 0-.989.423-.989.953s.428.98.962.98h1.31a.982.982 0 00.989-.98c0-.556-.401-.953-.962-.953zm8.472-2.013a.307.307 0 01-.32-.318V9.266c0-.185.133-.318.32-.318s.321.133.321.318v1.165a.307.307 0 01-.32.318zm0 10.434a.307.307 0 01-.32-.317V14.43c0-.185.133-.318.32-.318s.321.133.321.318v6.436a.307.307 0 01-.32.317zm.642-9.083c.187 0 .32.132.32.317a.307.307 0 01-.32.318h-1.31a.307.307 0 01-.32-.318c0-.185.133-.317.32-.317h1.31zm0-.636h-1.31a.982.982 0 00-.989.98c0 .556.428.98.99.98h1.309a.982.982 0 00.989-.98.982.982 0 00-.99-.98zm-5.211 9.719a.307.307 0 01-.321-.317v-2.57c0-.185.133-.317.32-.317.188 0 .321.132.321.318v2.569c.027.185-.133.317-.32.317zm0-6.303a.307.307 0 01-.321-.318V9.267c0-.185.133-.318.32-.318.188 0 .321.133.321.318v5.296c.027.186-.133.318-.32.318zm.667 1.219c.187 0 .321.132.321.317a.307.307 0 01-.32.318h-1.31a.307.307 0 01-.321-.318c0-.185.134-.317.32-.317h1.31zm0-.636h-1.31a.982.982 0 00-.988.98c0 .556.428.98.989.98h1.31a.982.982 0 00.988-.98.982.982 0 00-.989-.98z"
                            fill="#0063D3"></path>
                    </g>
                    <defs>
                        <clipPath id="clip0">
                            <path fill="#fff" transform="translate(0 .5)" d="M0 0h60v50H0z"></path>
                        </clipPath>
                        <filter id="filter0_ddd" x="-16" y="-7.235" width="68.188" height="57.371"
                            filterUnits="userSpaceOnUse" color-interpolation-filters="sRGB">
                            <feFlood flood-opacity="0" result="BackgroundImageFix"></feFlood>
                            <feColorMatrix in="SourceAlpha" values="0 0 0 0 0 0 0 0 0 0 0 0 0 0 0 0 0 0 127 0">
                            </feColorMatrix>
                            <feOffset dy="2"></feOffset>
                            <feGaussianBlur stdDeviation="2"></feGaussianBlur>
                            <feColorMatrix values="0 0 0 0 0 0 0 0 0 0 0 0 0 0 0 0 0 0 0.024 0"></feColorMatrix>
                            <feBlend in2="BackgroundImageFix" result="effect1_dropShadow"></feBlend>
                            <feColorMatrix in="SourceAlpha" values="0 0 0 0 0 0 0 0 0 0 0 0 0 0 0 0 0 0 127 0">
                            </feColorMatrix>
                            <feOffset dy="4"></feOffset>
                            <feGaussianBlur stdDeviation="4"></feGaussianBlur>
                            <feColorMatrix values="0 0 0 0 0 0 0 0 0 0 0 0 0 0 0 0 0 0 0.024 0"></feColorMatrix>
                            <feBlend in2="effect1_dropShadow" result="effect2_dropShadow"></feBlend>
                            <feColorMatrix in="SourceAlpha" values="0 0 0 0 0 0 0 0 0 0 0 0 0 0 0 0 0 0 127 0">
                            </feColorMatrix>
                            <feOffset dy="8"></feOffset>
                            <feGaussianBlur stdDeviation="8"></feGaussianBlur>
                            <feColorMatrix values="0 0 0 0 0 0 0 0 0 0 0 0 0 0 0 0 0 0 0.024 0"></feColorMatrix>
                            <feBlend in2="effect2_dropShadow" result="effect3_dropShadow"></feBlend>
                            <feBlend in="SourceGraphic" in2="effect3_dropShadow" result="shape"></feBlend>
                        </filter>
                    </defs>
                </svg>