<?xml version="1.0" encoding="utf-8"?><!DOCTYPE svg PUBLIC "-//W3C//DTD SVG 1.1//EN" "http://www.w3.org/Graphics/SVG/1.1/DTD/svg11.dtd"><svg version="1.1" id="Layer_1" xmlns="http://www.w3.org/2000/svg" xmlns:xlink="http://www.w3.org/1999/xlink" x="0px" y="0px"  width="35px" height="35px" viewBox="0 0 35 35" style="enable-background:new 0 0 35 35;" xml:space="preserve"><g> <g>  <path d="M11.6,25.6c-2.4,0-4.4-2-4.4-4.4s2-4.4,4.4-4.4s4.4,2,4.4,4.4S14,25.6,11.6,25.6z M11.6,17.7c-1.9,0-3.5,1.6-3.5,3.5   s1.6,3.5,3.5,3.5s3.5-1.6,3.5-3.5S13.6,17.7,11.6,17.7z"/> </g></g><g> <g>  <path d="M24.9,25.6c-2.4,0-4.4-2-4.4-4.4s2-4.4,4.4-4.4s4.4,2,4.4,4.4S27.3,25.6,24.9,25.6z M24.9,17.7c-1.9,0-3.5,1.6-3.5,3.5   s1.6,3.5,3.5,3.5s3.5-1.6,3.5-3.5S26.8,17.7,24.9,17.7z"/> </g></g><g> <g>  <path d="M11.6,21.6c-0.1,0-0.1,0-0.2,0c-0.2-0.1-0.3-0.4-0.2-0.6l3-6h8.1c0.2,0,0.4,0.2,0.4,0.4c0,0.2-0.2,0.4-0.4,0.4h-7.6   L12,21.4C11.9,21.5,11.8,21.6,11.6,21.6z"/> </g></g><g> <g>  <path d="M24.9,21.6c-0.2,0-0.3-0.1-0.4-0.3l-4-10.5h-2.2c-0.2,0-0.4-0.2-0.4-0.4S18,10,18.2,10h2.5c0.2,0,0.3,0.1,0.4,0.3   l4.2,10.8c0.1,0.2,0,0.5-0.2,0.5C25,21.6,24.9,21.6,24.9,21.6z"/> </g></g><g> <g>  <path fill="none" stroke="#000000" stroke-linecap="round" stroke-linejoin="round" stroke-miterlimit="10" d="M20.411,13.578"/> </g></g><g> <g>  <path d="M16.2,13.3h-2.1c-0.2,0-0.4-0.2-0.4-0.4c0-0.2,0.2-0.4,0.4-0.4h2.1c0.2,0,0.4,0.2,0.4,0.4C16.6,13.1,16.4,13.3,16.2,13.3z   "/> </g></g><g> <g>  <path d="M15.8,21.6h-4.2c-0.2,0-0.4-0.2-0.4-0.4c0-0.2,0.2-0.4,0.4-0.4h4.2c0.2,0,0.4,0.2,0.4,0.4C16.2,21.4,16,21.6,15.8,21.6z"   /> </g></g><g> <g>  <path d="M15.8,21.6c-0.1,0-0.2,0-0.3-0.1c-0.2-0.2-0.1-0.4,0-0.6l4.6-4.2c0.2-0.2,0.4-0.1,0.6,0c0.2,0.2,0.1,0.4,0,0.6L16,21.5   C16,21.6,15.9,21.6,15.8,21.6z"/> </g></g><style type="text/css">circle, ellipse, line, path, polygon, polyline, rect, text { fill: #003082; }</style></svg>