<svg width="20" height="81" viewBox="0 0 20 81" fill="none" xmlns="http://www.w3.org/2000/svg">
<rect width="20" height="81" fill="#003082"/>
<path d="M10.6777 73.0273H5.59766V71.334H10.5195C11.3203 71.334 11.9043 71.1895 12.2715 70.9004C12.6387 70.6113 12.8223 70.1641 12.8223 69.5586C12.8223 68.9531 12.6367 68.5098 12.2656 68.2285C11.8906 67.9473 11.2891 67.8066 10.4609 67.8066H5.59766V66.166H10.7012C11.9043 66.166 12.7852 66.4473 13.3438 67.0098C13.9023 67.5684 14.1816 68.4512 14.1816 69.6582C14.1816 70.7871 13.8965 71.6309 13.3262 72.1895C12.7559 72.748 11.873 73.0273 10.6777 73.0273ZM7.75977 65.0645V63.3535L10.4609 62.4863C11.3281 62.2129 12.0801 62.0332 12.7168 61.9473C12.0879 61.873 11.375 61.7168 10.5781 61.4785L7.75977 60.6523V58.7891L10.5664 57.9043C11.2969 57.6777 12.0137 57.5098 12.7168 57.4004C11.8574 57.2598 11.1328 57.0996 10.543 56.9199L7.75977 56.1055V54.5293L14 56.4746V58.3379L10.3027 59.498C9.87305 59.6309 9.45312 59.7148 9.04297 59.75C9.50781 59.8008 9.96484 59.8926 10.4141 60.0254L14 61.0977V62.9551L7.75977 65.0645ZM7.75977 50.1934V48.6523L8.70898 48.6172C8.36914 48.4219 8.11133 48.1523 7.93555 47.8086C7.75586 47.4648 7.66602 47.0879 7.66602 46.6777C7.66602 45.8379 8.0332 45.2578 8.76758 44.9375C8.0332 44.5039 7.66602 43.8477 7.66602 42.9688C7.66602 42.6406 7.70703 42.3613 7.78906 42.1309C7.87109 41.8965 8.01367 41.6895 8.2168 41.5098C8.41602 41.3301 8.69531 41.1973 9.05469 41.1113C9.41406 41.0215 9.85938 40.9766 10.3906 40.9766H14V42.582H10.9766C10.6992 42.582 10.4648 42.5898 10.2734 42.6055C10.082 42.6172 9.90039 42.6445 9.72852 42.6875C9.55664 42.7266 9.41992 42.7832 9.31836 42.8574C9.2168 42.9277 9.13867 43.0215 9.08398 43.1387C9.02539 43.252 8.99609 43.3906 8.99609 43.5547C8.99609 43.7578 9.03906 43.9355 9.125 44.0879C9.21094 44.2363 9.32031 44.3535 9.45313 44.4395C9.58203 44.5215 9.74414 44.5879 9.93945 44.6387C10.1348 44.6855 10.3242 44.7168 10.5078 44.7324C10.6875 44.748 10.8906 44.7559 11.1172 44.7559H14V46.3613H10.7949C10.1074 46.3613 9.63672 46.4277 9.38281 46.5605C9.125 46.6934 8.99609 46.9434 8.99609 47.3105C8.99609 47.4238 9.01172 47.5332 9.04297 47.6387C9.07422 47.7441 9.13281 47.8535 9.21875 47.9668C9.30469 48.0762 9.41602 48.1719 9.55273 48.2539C9.68945 48.3359 9.87305 48.4043 10.1035 48.459C10.3301 48.5098 10.5898 48.5352 10.8828 48.5352H14V50.1406H9.2832C8.9668 50.1406 8.45898 50.1582 7.75977 50.1934ZM10.8828 39.6992C9.87891 39.6992 9.08008 39.4258 8.48633 38.8789C7.88867 38.3281 7.58984 37.5977 7.58984 36.6875C7.58984 35.8086 7.87305 35.1211 8.43945 34.625C9.00195 34.1289 9.75586 33.8809 10.7012 33.8809C10.8691 33.8809 11.1016 33.8926 11.3984 33.916V38.1055C11.8828 38.0703 12.2637 37.8867 12.541 37.5547C12.8184 37.2188 12.957 36.7891 12.957 36.2656C12.957 35.6719 12.748 35.0234 12.3301 34.3203L13.7246 34.2734C14.0137 34.9531 14.1582 35.6816 14.1582 36.459C14.1582 37.4785 13.873 38.2734 13.3027 38.8438C12.7285 39.4141 11.9219 39.6992 10.8828 39.6992ZM10.2793 38.1289L10.2793 35.416C9.25586 35.4277 8.74414 35.8633 8.74414 36.7227C8.74414 37.1133 8.88086 37.4336 9.1543 37.6836C9.42383 37.9336 9.79883 38.082 10.2793 38.1289ZM7.75977 32.5273V31.0039L8.75586 30.9688C8.0293 30.4805 7.66602 29.7773 7.66602 28.8594C7.66602 28.5273 7.71484 28.2363 7.8125 27.9863C7.90625 27.7363 8.03516 27.5332 8.19922 27.377C8.36328 27.2168 8.56836 27.0879 8.81445 26.9902C9.05664 26.8926 9.3125 26.8262 9.58203 26.791C9.84766 26.752 10.1484 26.7324 10.4844 26.7324H14V28.3555H10.8652C10.2168 28.3555 9.74414 28.4375 9.44727 28.6016C9.14648 28.7656 8.99609 29.0508 8.99609 29.457C8.99609 29.6016 9.00977 29.7344 9.03711 29.8555C9.06445 29.9766 9.12109 30.1016 9.20703 30.2305C9.29297 30.3594 9.4082 30.4688 9.55273 30.5586C9.69727 30.6484 9.89648 30.7227 10.1504 30.7812C10.4004 30.8359 10.6953 30.8633 11.0352 30.8633H14V32.4688H9.2832C8.7793 32.4688 8.27148 32.4883 7.75977 32.5273ZM6.63477 25.0508H5.10547V23.375H6.63477V25.0508ZM14 25.0156H7.75977V23.4102H14V25.0156ZM7.75977 21.5938V20.0703L8.75586 20.0352C8.0293 19.5469 7.66602 18.8438 7.66602 17.9258C7.66602 17.5938 7.71484 17.3027 7.8125 17.0527C7.90625 16.8027 8.03516 16.5996 8.19922 16.4434C8.36328 16.2832 8.56836 16.1543 8.81445 16.0566C9.05664 15.959 9.3125 15.8926 9.58203 15.8574C9.84766 15.8184 10.1484 15.7988 10.4844 15.7988H14V17.4219H10.8652C10.2168 17.4219 9.74414 17.5039 9.44727 17.668C9.14648 17.832 8.99609 18.1172 8.99609 18.5234C8.99609 18.668 9.00977 18.8008 9.03711 18.9219C9.06445 19.043 9.12109 19.168 9.20703 19.2969C9.29297 19.4258 9.4082 19.5352 9.55273 19.625C9.69727 19.7148 9.89648 19.7891 10.1504 19.8477C10.4004 19.9023 10.6953 19.9297 11.0352 19.9297H14V21.5352H9.2832C8.7793 21.5352 8.27148 21.5547 7.75977 21.5938ZM10.8184 14.4922C9.83398 14.4922 9.06055 14.2598 8.49805 13.7949C7.93555 13.3301 7.6543 12.6934 7.6543 11.8848C7.6543 10.9746 8.0293 10.3359 8.7793 9.96875L7.75977 9.92188L7.75977 8.42188H13.2441C14.4434 8.42188 15.3105 8.68359 15.8457 9.20703C16.3848 9.72656 16.6543 10.5352 16.6543 11.6328C16.6543 12.0195 16.6211 12.375 16.5547 12.6992C16.4922 13.0195 16.3809 13.4004 16.2207 13.8418L14.8145 13.7129C15.166 13.0723 15.3418 12.4434 15.3418 11.8262C15.3418 11.4043 15.2461 11.0332 15.0547 10.7129C14.918 10.4824 14.7715 10.3184 14.6152 10.2207C14.459 10.1191 14.2539 10.0488 14 10.0098C13.7461 9.9707 13.3301 9.94141 12.752 9.92188C13.584 10.3711 14 11.0703 14 12.0195C14 12.7812 13.7129 13.3848 13.1387 13.8301C12.5605 14.2715 11.7871 14.4922 10.8184 14.4922ZM10.7832 12.8105C11.3613 12.8105 11.8242 12.6855 12.1719 12.4355C12.5195 12.1855 12.6934 11.8555 12.6934 11.4453C12.6934 11.0391 12.5176 10.6973 12.166 10.4199C11.8105 10.1426 11.377 10.0039 10.8652 10.0039C10.3223 10.0039 9.875 10.1406 9.52344 10.4141C9.17188 10.6875 8.99609 11.0352 8.99609 11.457C8.99609 11.8633 9.16016 12.1914 9.48828 12.4414C9.81641 12.6875 10.248 12.8105 10.7832 12.8105Z" fill="white"/>
</svg>
